<?xml version="1.0" encoding="utf-8"?>
<!-- Generator: Adobe Illustrator 27.5.0, SVG Export Plug-In . SVG Version: 6.00 Build 0)  -->
<svg version="1.1" xmlns="http://www.w3.org/2000/svg" xmlns:xlink="http://www.w3.org/1999/xlink" x="0px" y="0px"
	 viewBox="0 0 3710 3710" style="enable-background:new 0 0 3710 3710;" xml:space="preserve">
<g id="Background">
	<g>
		<g>
			<rect style="fill:#FFFFFF;" width="3710" height="3710"/>
		</g>
	</g>
</g>
<g id="Illustration">
	<g>
		<linearGradient id="SVGID_1_" gradientUnits="userSpaceOnUse" x1="3450.0435" y1="3268.7544" x2="1442.7766" y2="1512.3972">
			<stop  offset="0" style="stop-color:#DAE3FE"/>
			<stop  offset="1" style="stop-color:#E9EFFD"/>
		</linearGradient>
		<path style="fill:url(#SVGID_1_);" d="M3108.913,2356.6c-259.42,610.829-950.454,953.02-1549.72,860.715
			c-97.513-15.02-364.846-59.761-601.534-270.837C502.021,2540.14,404.579,1735.541,772.128,1168.52
			c267.512-412.692,747.054-646.633,1202.713-634.93c98.149,2.52,474.297,18.055,804.865,290.635
			c48.554,40.037,155.645,135.175,252.159,286.105C3258.5,1464.741,3277.979,1958.515,3108.913,2356.6z"/>
		<g>
			<path style="fill:#BDD0FB;" d="M874.785,481.173c-4.409-13.959,11.913-25.283,23.583-16.445
				c118.506,89.746,409.604,365.27,401.335,901.686c-10.375,673.015,153.783,900.752,341.771,1030.333
				c0,0-243.983-44.41-418.971-274.604C792.867,1556.965,953.187,729.372,874.785,481.173z"/>
			<path style="fill:#FFFFFF;" d="M978.834,679.985c21.338,72.534,41.234,145.45,58.436,218.989
				c17.584,73.436,32.936,147.372,45.96,221.68c12.738,74.351,24.079,148.93,32.235,223.88c8.493,74.91,13.758,150.1,18.781,225.611
				c5.442,75.439,10.495,151.468,23.346,227.211c12.756,75.595,34.74,150.883,69.83,219.922
				c8.766,17.204,17.879,34.315,27.91,50.719c9.731,16.597,20.2,32.767,30.953,48.742c21.671,31.853,45.494,62.321,71.469,90.883
				c52.103,57,112.846,106.021,178.275,146.021c6.886,4.21,15.881,2.04,20.092-4.847c4.134-6.761,2.116-15.558-4.479-19.859
				l-0.047-0.03c-15.638-10.179-31.141-20.524-46.129-31.526c-7.584-5.382-14.912-11.089-22.346-16.655
				c-7.213-5.841-14.656-11.404-21.681-17.462c-28.501-23.75-55.301-49.472-80.065-77.049
				c-49.746-54.849-91.552-117.417-125.189-183.312c-16.451-33.147-30.432-67.449-41.724-102.708
				c-11.267-35.271-19.841-71.462-26.356-108.17c-13.042-73.457-18.665-148.667-24.649-224.063
				c-6.083-75.405-12.713-151.137-22.45-226.478c-4.766-37.679-10.208-75.268-16.321-112.74c-2.948-18.753-6.26-37.446-9.536-56.141
				c-3.456-18.664-7.015-37.307-10.725-55.916c-14.979-74.415-32.222-148.336-51.775-221.61
				c-19.904-73.179-41.745-145.806-66.345-217.469c-0.704-2.049-2.933-3.139-4.981-2.435
				C979.333,675.854,978.25,677.987,978.834,679.985z"/>
		</g>
		<g>
			<g>
				<path style="fill:#91B3FA;" d="M1228.314,2473.483c-5.134,27.943-37.137,41.562-61.035,26.198
					c-131.864-84.774-483.016-358.176-542.996-896.013c-50.65-454.179-121.276-695.64-160.933-803.033
					c-8.385-22.709,17.094-42.924,37.327-29.634C723.91,917.632,1414.336,1460.947,1228.314,2473.483z"/>
				<path style="fill:#FFFFFF;" d="M1190.41,2480.054c-0.515,0.481-1.081,0.917-1.702,1.304c-5.194,3.248-12.038,1.67-15.285-3.523
					c-3.682-5.889-369.291-596.033-468.244-1224.358c-0.95-6.047,3.181-11.725,9.233-12.685c6.053-0.951,11.729,3.181,12.685,9.233
					c98.231,623.751,461.479,1210.198,465.135,1216.047C1195.094,2470.648,1194.211,2476.502,1190.41,2480.054z"/>
			</g>
		</g>
		<g>
			
				<linearGradient id="SVGID_00000172433729672236748270000016309184192774795664_" gradientUnits="userSpaceOnUse" x1="1005.2552" y1="946.1778" x2="-1941.8986" y2="4305.4614" gradientTransform="matrix(-1 0 0 1 2062.8765 0)">
				<stop  offset="0" style="stop-color:#09005D"/>
				<stop  offset="1" style="stop-color:#1A0F91"/>
			</linearGradient>
			<path style="fill:url(#SVGID_00000172433729672236748270000016309184192774795664_);" d="M686.812,1846.055
				c0,609.952,513.162,1104.416,1146.18,1104.416s1174.531-516.07,1174.531-1126.022c0-609.951-541.513-1082.809-1174.531-1082.809
				S686.812,1236.105,686.812,1846.055z"/>
			<g>
				<path style="fill:#91B3FA;" d="M2917.53,1577.516c0.681,0,1.361-0.075,2.041-0.252c4.227-1.088,6.74-5.259,5.619-9.34
					c-12.336-44.625-28.088-88.896-46.832-131.569c-1.709-3.873-6.376-5.645-10.374-4.051c-4.027,1.653-5.904,6.12-4.204,10.009
					c18.457,42.004,33.969,85.587,46.105,129.543C2910.83,1575.267,2914.037,1577.516,2917.53,1577.516z"/>
				<path style="fill:#91B3FA;" d="M2742.38,1232.381c1.654,0,3.33-0.507,4.76-1.534c3.486-2.533,4.182-7.328,1.553-10.679
					c-212.359-271.346-554.423-433.33-915.023-433.33c-154.003,0-302.96,30.089-442.72,89.401c-3.996,1.699-5.812,6.213-4.05,10.055
					c1.754,3.857,6.432,5.6,10.436,3.917c137.734-58.477,284.543-88.12,436.335-88.12c355.661,0,692.993,159.72,902.379,427.252
					C2737.611,1231.339,2739.976,1232.381,2742.38,1232.381z"/>
			</g>
			
				<linearGradient id="SVGID_00000009568463377827178090000001184882975353365166_" gradientUnits="userSpaceOnUse" x1="2456.4553" y1="1846.0544" x2="4465.2852" y2="1846.0544">
				<stop  offset="0" style="stop-color:#4F52FF"/>
				<stop  offset="1" style="stop-color:#4042E2"/>
			</linearGradient>
			<path style="fill:url(#SVGID_00000009568463377827178090000001184882975353365166_);" d="M842.752,1846.055
				c0,527.981,444.2,955.992,992.145,955.992s1016.685-446.714,1016.685-974.693c0-527.98-468.739-937.293-1016.685-937.293
				S842.752,1318.075,842.752,1846.055z"/>
			<path style="opacity:0.78;fill:#FFFFFF;" d="M2598.033,1796.472c2.454,40.581,38.579,71.563,80.698,69.2
				c42.113-2.363,74.268-37.173,71.815-77.754c-2.451-40.579-38.581-71.563-80.696-69.2
				C2627.737,1721.079,2595.583,1755.89,2598.033,1796.472z"/>
			<path style="fill:#BDD0FB;" d="M947.794,1889.023c2.449,40.58,38.58,71.562,80.693,69.2c42.116-2.362,74.27-37.174,71.818-77.755
				c-2.451-40.579-38.58-71.562-80.693-69.198C977.496,1813.631,945.341,1848.441,947.794,1889.023z"/>
			<path style="fill:#BDD0FB;" d="M1983.951,2549.506c-41.5,7.303-68.996,45.642-61.416,85.629s47.368,66.484,88.866,59.179
				c41.499-7.303,68.996-45.641,61.416-85.628C2065.238,2568.697,2025.452,2542.203,1983.951,2549.506z"/>
			<path style="fill:#BDD0FB;" d="M1686.938,982.628c-41.502,7.303-68.999,45.64-61.418,85.628
				c7.58,39.989,47.365,66.482,88.866,59.178c41.498-7.302,68.997-45.641,61.418-85.627
				C1768.225,1001.819,1728.437,975.325,1686.938,982.628z"/>
			<path style="fill:#BDD0FB;" d="M1440.905,2591.575c-7.765,18.87-5.826,36.54,4.33,39.466
				c10.154,2.925,24.681-10.001,32.442-28.869c7.763-18.87,5.822-36.544-4.331-39.469
				C1463.191,2559.777,1448.664,2572.704,1440.905,2591.575z"/>
			<path style="opacity:0.78;fill:#FFFFFF;" d="M2104.795,1105.391c-7.762,18.87-5.823,36.54,4.331,39.465
				c10.157,2.927,24.681-10,32.445-28.868c7.762-18.871,5.823-36.543-4.332-39.469
				C2127.083,1073.595,2112.557,1086.521,2104.795,1105.391z"/>
			<path style="opacity:0.78;fill:#FFFFFF;" d="M1094.262,2309.053c-16.802,12.245-24.667,28.317-17.564,35.898
				c7.103,7.583,26.481,3.802,43.286-8.44c16.802-12.247,24.664-28.318,17.562-35.898
				C1130.444,2293.031,1111.064,2296.811,1094.262,2309.053z"/>
			<path style="opacity:0.78;fill:#FFFFFF;" d="M2462.492,1371.049c-16.801,12.245-24.666,28.316-17.564,35.897
				c7.1,7.585,26.481,3.803,43.283-8.44c16.804-12.244,24.667-28.317,17.564-35.899
				C2498.673,1355.027,2479.295,1358.807,2462.492,1371.049z"/>
			<path style="opacity:0.78;fill:#FFFFFF;" d="M1050.725,1467.556c-19.02-8.725-37.447-8.044-41.155,1.524
				c-3.712,9.567,8.699,24.396,27.719,33.123c19.021,8.726,37.449,8.045,41.157-1.523
				C1082.156,1491.114,1069.745,1476.283,1050.725,1467.556z"/>
			<path style="opacity:0.78;fill:#FFFFFF;" d="M2545.185,2205.358c-19.021-8.727-37.448-8.045-41.157,1.522
				c-3.712,9.568,8.7,24.399,27.721,33.124c19.018,8.728,37.448,8.043,41.156-1.522
				C2576.617,2228.916,2564.203,2214.084,2545.185,2205.358z"/>
			<path style="fill:#BDD0FB;" d="M1366.486,1153.218c-11.552-16.975-27.669-25.611-35.995-19.29
				c-8.327,6.322-5.709,25.205,5.842,42.18c11.553,16.973,27.672,25.609,35.993,19.29
				C1380.656,1189.077,1378.037,1170.191,1366.486,1153.218z"/>
			<path style="fill:#BDD0FB;" d="M2246.141,2531.453c-11.553-16.972-27.671-25.608-35.995-19.287
				c-8.326,6.318-5.71,25.201,5.843,42.177c11.551,16.975,27.669,25.611,35.995,19.29
				C2260.311,2567.312,2257.693,2548.428,2246.141,2531.453z"/>
			
				<linearGradient id="SVGID_00000114042421217377175980000013084619500430179510_" gradientUnits="userSpaceOnUse" x1="3148.4868" y1="-391.1284" x2="2702.8623" y2="641.9123">
				<stop  offset="0" style="stop-color:#4F52FF"/>
				<stop  offset="1" style="stop-color:#4042E2"/>
			</linearGradient>
			<path style="fill:url(#SVGID_00000114042421217377175980000013084619500430179510_);" d="M1796.806,1827.67l843.524,624.054
				c595.366-819.551-17.567-1509.332-792.378-1584.752L1796.806,1827.67z"/>
			<g>
				
					<linearGradient id="SVGID_00000139254173678176272920000017768488020469640858_" gradientUnits="userSpaceOnUse" x1="-820.7155" y1="10858.9951" x2="-91.6077" y2="9537.4873" gradientTransform="matrix(0.1179 -0.993 -0.993 -0.1179 4818.7607 6080.0273)">
					<stop  offset="0" style="stop-color:#FF928E"/>
					<stop  offset="1" style="stop-color:#FE7062"/>
				</linearGradient>
				<path style="fill:url(#SVGID_00000139254173678176272920000017768488020469640858_);" d="M1848.846,1824.644L2411.99,2207.2
					c10.911,7.41,25.943,0.987,27.439-11.725l8.896-75.628c1.732-14.708,20.844-20.14,30.803-8.748l382.991,437.984
					c11.715,13.401-2.493,32.891-19.443,26.67l-547.69-200.944c-13.105-4.808-15.578-21.694-4.33-29.572l75.579-52.949
					c9.341-6.544,9.552-19.948,0.427-26.96l-538.65-413.655c-7.501-5.76-8.93-16.199-3.216-23.51l0,0
					C1830.456,1820.927,1841.084,1819.372,1848.846,1824.644z"/>
				<path style="opacity:0.72;fill:#FFFFFF;" d="M2794.15,2537.121c5.642,0.845,11.202-1.423,14.544-6.149
					c3.997-5.653,3.462-12.885-1.325-18.031l-84.554-90.869c-2.93-3.15-7.943-3.435-11.168-0.635
					c-3.24,2.797-3.478,7.613-0.543,10.778l84.554,90.87c-123.716-47.321-413.922-155.133-420.045-156.668
					c-4.126-1.098-8.528,1.359-9.594,5.446c-1.04,4.031,1.454,8.141,5.583,9.271c8.773,2.731,231.191,85.218,419.281,155.135
					C2791.967,2536.671,2793.057,2536.957,2794.15,2537.121z"/>
				
					<linearGradient id="SVGID_00000178173062162150594510000007880718180898153869_" gradientUnits="userSpaceOnUse" x1="442.3626" y1="10099.5264" x2="1171.5303" y2="8777.9111" gradientTransform="matrix(-0.0305 -0.9995 -0.9995 0.0305 4912.793 5520.5835)">
					<stop  offset="0" style="stop-color:#FF928E"/>
					<stop  offset="1" style="stop-color:#FE7062"/>
				</linearGradient>
				<path style="fill:url(#SVGID_00000178173062162150594510000007880718180898153869_);" d="M1801.786,1787.389l1.217-578.104
					c-0.201-12.799-14.508-20.756-26.11-14.524l-69.027,37.071c-13.427,7.211-29.312-4.499-25.599-18.873l142.761-552.729
					c4.368-16.907,29.205-17.195,33.986-0.388l154.52,542.966c3.696,12.992-9.077,24.739-22.375,20.57l-89.347-27.993
					c-11.045-3.462-22.468,4.171-22.979,15.351l-41.935,577.139c-0.418,9.188-8.374,16.371-17.919,16.178l0,0
					C1809.53,1803.86,1801.932,1796.497,1801.786,1787.389z"/>
				<path style="opacity:0.72;fill:#FFFFFF;" d="M1966.119,1149.802c0.965,0,1.941-0.164,2.89-0.521
					c4.021-1.52,6.022-5.854,4.539-9.742c-2.876-8.37-64.88-229.399-117.191-416.422c-1.856-6.613-7.69-10.963-14.994-10.798
					c-7.127,0.177-12.924,4.809-14.432,11.526l-26.604,118.64c-0.919,4.112,1.793,8.179,6.068,9.057
					c4.228,0.909,8.47-1.713,9.406-5.839l26.605-118.64c33.28,123.78,114.036,412.223,116.348,417.898
					C1959.975,1147.971,1962.959,1149.802,1966.119,1149.802z"/>
				
					<linearGradient id="SVGID_00000003078679028546810620000000973376570525043348_" gradientUnits="userSpaceOnUse" x1="6720.0762" y1="-9957.8232" x2="7449.2451" y2="-11279.4404" gradientTransform="matrix(-1 0 0 1 2062.8765 0)">
					<stop  offset="0" style="stop-color:#FF928E"/>
					<stop  offset="1" style="stop-color:#FE7062"/>
				</linearGradient>
				
					<ellipse style="fill:url(#SVGID_00000003078679028546810620000000973376570525043348_);" cx="1840.023" cy="1818.383" rx="81.579" ry="78.609"/>
			</g>
		</g>
		<g>
			
				<linearGradient id="SVGID_00000044170701284315793870000010183309150981918892_" gradientUnits="userSpaceOnUse" x1="3056.1665" y1="609.7221" x2="3042.7168" y2="1110.4492">
				<stop  offset="0" style="stop-color:#09005D"/>
				<stop  offset="1" style="stop-color:#1A0F91"/>
			</linearGradient>
			<path style="fill:url(#SVGID_00000044170701284315793870000010183309150981918892_);" d="M3110.852,1151.521
				c-12.059-121.639-42.237-423.759-48.825-467.918c-8.28-55.501-76.291-43.252-76.291-43.252l-14.563,561.647H3066
				c12.744,0,24.898-5.494,33.439-15.126S3112.133,1164.434,3110.852,1151.521z"/>
			
				<linearGradient id="SVGID_00000139996508154126315640000018093161301163152799_" gradientUnits="userSpaceOnUse" x1="-2035.2706" y1="6352.3921" x2="-2758.2585" y2="7302.0166" gradientTransform="matrix(0.0212 -0.9997 0.9997 0.0212 -3991.1919 -1525.9956)">
				<stop  offset="0" style="stop-color:#09005D"/>
				<stop  offset="1" style="stop-color:#1A0F91"/>
			</linearGradient>
			<path style="fill:url(#SVGID_00000139996508154126315640000018093161301163152799_);" d="M2343.667,1216.156
				c-29.612-0.628-53.107-25.143-52.479-54.755l9.672-455.963c0.533-25.155,20.687-45.479,45.836-46.225l661.774-19.634
				c19.681-0.584,35.935,15.243,35.875,34.932l-1.587,522.792c-0.056,18.5-15.277,33.357-33.774,32.964L2343.667,1216.156z"/>
			<g>
				<path style="fill:#91B3FA;" d="M2301.018,1177.88c-9.475-0.146-16.631-8.633-15.159-17.995
					c9.765-62.087,40.422-275.648,30.587-452.965c-0.448-8.086,5.817-14.962,13.912-15.221l664.755-21.206
					c9.115-0.291,16.753,6.826,17.099,15.94c2.827,74.547,13.356,381.537-0.42,490.664c-0.838,6.642-6.55,11.576-13.244,11.473
					L2301.018,1177.88z"/>
				<path style="opacity:0.6;fill:#FFFFFF;" d="M2317.813,1170.898c-9.119-0.139-16.006-8.307-14.588-17.316
					c9.396-59.749,38.899-265.269,29.436-435.909c-0.432-7.782,5.598-14.399,13.387-14.648l639.724-20.407
					c8.772-0.279,16.123,6.57,16.455,15.34c2.72,71.741,12.853,367.171-0.404,472.188c-0.807,6.391-6.303,11.139-12.744,11.041
					L2317.813,1170.898z"/>
			</g>
			<path style="opacity:0.72;fill:#FFFFFF;" d="M2711.003,811.437l-0.977,46.073c-0.15,7.032,5.489,12.825,12.522,12.864
				l47.257,0.267c6.88,0.039,12.519-5.45,12.665-12.33l1.027-48.437c0.154-7.281-5.877-13.175-13.153-12.852l-47.307,2.097
				C2716.409,799.414,2711.144,804.801,2711.003,811.437z"/>
			<path style="opacity:0.72;fill:#FFFFFF;" d="M2545.782,869.986l47.257,0.268c6.88,0.038,12.519-5.451,12.665-12.331l0.874-41.197
				c0.154-7.238-5.811-13.116-13.047-12.856l-47.298,1.699c-6.673,0.239-12,5.645-12.142,12.322l-0.832,39.231
				C2533.11,864.154,2538.748,869.946,2545.782,869.986z"/>
			<path style="opacity:0.72;fill:#FFFFFF;" d="M2587.186,1075.207l-44.952-0.435c-7.531-0.074-13.718,5.925-13.878,13.454
				l-0.893,42.097c-0.158,7.478,5.69,13.71,13.163,14.026l44.921,1.902c7.699,0.326,14.162-5.739,14.325-13.444l0.925-43.562
				C2600.959,1081.593,2594.841,1075.282,2587.186,1075.207z"/>
			<path style="opacity:0.72;fill:#FFFFFF;" d="M2511.559,1129.31l0.873-41.16c0.16-7.521-5.855-13.724-13.377-13.797l-45.424-0.44
				c-7.401-0.072-13.482,5.825-13.64,13.224l-0.841,39.679c-0.156,7.349,5.593,13.474,12.937,13.786l45.392,1.921
				C2505.046,1142.843,2511.399,1136.882,2511.559,1129.31z"/>
			<path style="opacity:0.72;fill:#FFFFFF;" d="M2515.501,943.491l0.717-33.788c0.173-8.16-6.402-14.863-14.563-14.848
				l-43.377,0.078c-7.9,0.014-14.343,6.334-14.51,14.232l-0.685,32.29c-0.169,7.963,6.101,14.58,14.061,14.841l43.345,1.418
				C2508.579,957.979,2515.329,951.584,2515.501,943.491z"/>
			<path style="opacity:0.72;fill:#FFFFFF;" d="M2513.418,1041.678l1.096-51.68c0.158-7.399-5.668-13.548-13.066-13.791
				l-44.361-1.451c-8.092-0.265-14.841,6.129-15.013,14.224l-1.106,52.12c-0.16,7.572,5.934,13.797,13.507,13.798l45.433,0.005
				C2507.259,1054.904,2513.262,1049.027,2513.418,1041.678z"/>
			<path style="opacity:0.72;fill:#FFFFFF;" d="M2634.159,870.485l47.256,0.267c6.88,0.039,12.519-5.45,12.665-12.33l0.952-44.873
				c0.154-7.238-5.812-13.116-13.046-12.856l-47.298,1.699c-6.673,0.24-12,5.646-12.142,12.323l-0.91,42.907
				C2621.487,864.654,2627.125,870.446,2634.159,870.485z"/>
			<path style="opacity:0.72;fill:#FFFFFF;" d="M2601.811,1041.457l1.026-48.335c0.159-7.528-5.768-13.785-13.294-14.031
				l-44.931-1.471c-7.65-0.25-14.031,5.796-14.194,13.448l-1.057,49.8c-0.164,7.704,6.037,14.038,13.742,14.039l44.962,0.005
				C2595.545,1054.913,2601.652,1048.935,2601.811,1041.457z"/>
			<path style="opacity:0.72;fill:#FFFFFF;" d="M2682.646,894.528l-51.605,0.094c-5.666,0.01-10.285,4.541-10.406,10.205
				l-0.986,46.476c-0.121,5.711,4.375,10.455,10.083,10.642l51.568,1.687c5.802,0.19,10.643-4.395,10.765-10.199l1.024-48.258
				C2693.213,899.324,2688.499,894.517,2682.646,894.528z"/>
			<path style="opacity:0.72;fill:#FFFFFF;" d="M2708.97,907.283l-0.939,44.263c-0.152,7.177,5.499,13.141,12.673,13.376
				l46.216,1.513c7.292,0.238,13.375-5.524,13.53-12.819l0.973-45.86c0.156-7.354-5.77-13.396-13.125-13.383l-46.249,0.084
				C2714.928,894.469,2709.121,900.165,2708.97,907.283z"/>
			<path style="opacity:0.72;fill:#FFFFFF;" d="M2541.405,959.054l51.569,1.688c5.802,0.19,10.642-4.396,10.765-10.2l0.959-45.207
				c0.125-5.851-4.591-10.658-10.443-10.647l-51.607,0.093c-5.665,0.011-10.285,4.542-10.406,10.206l-0.921,43.426
				C2531.201,954.122,2535.697,958.867,2541.405,959.054z"/>
			<path style="opacity:0.72;fill:#FFFFFF;" d="M2677.868,981.983l-44.93-1.471c-7.65-0.25-14.031,5.795-14.194,13.448
				l-0.995,46.919c-0.164,7.704,6.037,14.038,13.742,14.039l44.962,0.005c7.479,0.001,13.587-5.978,13.745-13.456l0.965-45.453
				C2691.322,988.485,2685.395,982.229,2677.868,981.983z"/>
			<path style="opacity:0.72;fill:#FFFFFF;" d="M2767.749,984.925l-48.076-1.574c-6.774-0.222-12.425,5.132-12.569,11.909
				l-1.002,47.236c-0.145,6.822,5.346,12.431,12.17,12.432l48.109,0.005c6.623,0.001,12.032-5.294,12.172-11.915l0.969-45.668
				C2779.663,990.683,2774.415,985.142,2767.749,984.925z"/>
			<path style="opacity:0.72;fill:#FFFFFF;" d="M2464.013,868.913l35.867,0.203c9.54,0.053,17.358-7.557,17.56-17.095l0.628-29.591
				c0.19-8.941-7.179-16.202-16.116-15.881l-39.917,1.433c-9.056,0.325-16.286,7.662-16.478,16.723l-0.524,24.712
				C2444.808,860.075,2453.353,868.853,2464.013,868.913z"/>
			<path style="opacity:0.72;fill:#FFFFFF;" d="M2424.04,1088.334c0.172-8.094-6.301-14.77-14.396-14.848l-15.625-0.152
				c-11.875-0.116-21.584,7.733-21.794,17.618l-0.607,28.605c-0.208,9.804,9.01,18.019,20.777,18.517l16.774,0.71
				c7.567,0.321,13.919-5.64,14.08-13.213L2424.04,1088.334z"/>
			<path style="opacity:0.72;fill:#FFFFFF;" d="M2926.452,1078.498l-30.728-0.298c-7.537-0.073-13.729,5.931-13.889,13.466
				l-1.137,53.598c-0.159,7.483,5.695,13.722,13.173,14.038l30.588,1.294c12.197,0.517,22.429-7.435,22.644-17.596l0.975-45.964
				C2948.293,1086.958,2938.561,1078.616,2926.452,1078.498z"/>
			<path style="opacity:0.72;fill:#FFFFFF;" d="M2395.261,1054.891l15.252,0.002c7.911,0,14.371-6.323,14.538-14.232l1.114-52.536
				c0.17-7.963-6.1-14.58-14.061-14.841l-15.351-0.503c-12.104-0.396-22.18,7.526-22.394,17.606l-0.975,45.963
				C2373.168,1046.512,2383.054,1054.89,2395.261,1054.891z"/>
			<path style="opacity:0.72;fill:#FFFFFF;" d="M2396.544,954.313l19.2,0.628c6.119,0.2,11.223-4.636,11.354-10.758l0.805-37.946
				c0.131-6.171-4.842-11.241-11.014-11.23l-19.388,0.035c-11.758,0.021-21.286,7.831-21.494,17.619l-0.491,23.124
				C2375.308,945.671,2384.676,953.924,2396.544,954.313z"/>
			<path style="opacity:0.72;fill:#FFFFFF;" d="M2931.36,791.126l-30.814,1.107c-6.942,0.249-12.484,5.873-12.631,12.818
				l-1.123,52.942c-0.155,7.315,5.71,13.341,13.027,13.382l31.729,0.179c11.834,0.067,21.479-7.768,21.688-17.619l0.939-44.285
				C2954.397,799.18,2943.921,790.675,2931.36,791.126z"/>
			<path style="opacity:0.72;fill:#FFFFFF;" d="M2675.556,1076.065l-44.952-0.436c-7.53-0.073-13.718,5.926-13.878,13.455
				l-0.954,44.977c-0.159,7.478,5.69,13.71,13.163,14.026l44.921,1.901c7.699,0.326,14.162-5.739,14.326-13.443l0.985-46.443
				C2689.329,1082.45,2683.21,1076.139,2675.556,1076.065z"/>
			<path style="opacity:0.72;fill:#FFFFFF;" d="M2930.063,894.081l-31.232,0.056c-7.12,0.013-12.927,5.709-13.078,12.827
				l-1.069,50.365c-0.153,7.177,5.498,13.141,12.673,13.375l31.359,1.027c12.103,0.396,22.18-7.526,22.394-17.606l0.88-41.503
				C2952.207,902.444,2942.29,894.059,2930.063,894.081z"/>
			<path style="opacity:0.72;fill:#FFFFFF;" d="M2928.926,990.199l-32.599-1.067c-6.775-0.221-12.426,5.132-12.569,11.909
				l-0.88,41.474c-0.145,6.822,5.346,12.431,12.169,12.432l32.755,0.004c11.777,0.001,21.335-7.815,21.543-17.619l0.607-28.605
				C2950.162,998.841,2940.794,990.588,2928.926,990.199z"/>
			<path style="opacity:0.72;fill:#FFFFFF;" d="M2795.431,998.151l-0.941,44.355c-0.144,6.822,5.346,12.431,12.17,12.432
				l48.109,0.005c6.624,0.001,12.032-5.294,12.172-11.916l0.908-42.787c0.141-6.667-5.108-12.207-11.773-12.424L2808,986.242
				C2801.226,986.02,2795.575,991.374,2795.431,998.151z"/>
			<path style="opacity:0.72;fill:#FFFFFF;" d="M2852.284,1077.779l-44.93-0.436c-7.537-0.073-13.729,5.931-13.889,13.466
				l-1.076,50.717c-0.159,7.484,5.695,13.721,13.173,14.038l44.899,1.9c7.705,0.327,14.174-5.744,14.337-13.454l1.107-52.182
				C2866.069,1084.17,2859.944,1077.853,2852.284,1077.779z"/>
			<path style="opacity:0.72;fill:#FFFFFF;" d="M2399.07,868.546l18.802,0.106c6.007,0.034,10.929-4.758,11.057-10.763l0.787-37.114
				c0.134-6.319-5.073-11.45-11.389-11.223l-19.915,0.715c-11.4,0.409-20.404,8.102-20.605,17.603l-0.47,22.137
				C2377.122,860.12,2386.918,868.477,2399.07,868.546z"/>
			<path style="opacity:0.72;fill:#FFFFFF;" d="M2763.914,1076.922l-44.174-0.429c-7.956-0.077-14.492,6.261-14.661,14.214
				l-0.999,47.08c-0.159,7.484,5.695,13.721,13.174,14.038l44.898,1.901c7.706,0.326,14.174-5.744,14.337-13.454l1.046-49.301
				C2777.698,1083.313,2771.574,1076.996,2763.914,1076.922z"/>
			<path style="opacity:0.72;fill:#FFFFFF;" d="M2799.46,808.228l-1.045,49.266c-0.155,7.316,5.711,13.341,13.028,13.382
				l46.242,0.261c7.158,0.04,13.024-5.67,13.176-12.826l1.086-51.189c0.16-7.529-6.045-13.644-13.572-13.374l-46.283,1.662
				C2805.148,795.659,2799.607,801.283,2799.46,808.228z"/>
			<path style="opacity:0.72;fill:#FFFFFF;" d="M2797.362,907.123l-1.004,47.314c-0.152,7.177,5.498,13.141,12.673,13.375
				l46.216,1.513c7.292,0.239,13.375-5.525,13.53-12.82l1.038-48.91c0.156-7.354-5.769-13.396-13.125-13.382l-46.249,0.083
				C2803.32,894.31,2797.513,900.005,2797.362,907.123z"/>
			<path style="fill:#FFFFFF;" d="M2393.941,770.356l2.129,15.602c0.682,4.996,4.896,8.753,9.937,8.86l0.737,0.016
				c5.658,0.12,10.344-4.37,10.463-10.029l0.338-15.97c0.132-6.189-5.213-11.081-11.367-10.404l-3.205,0.353
				C2397.244,759.415,2393.162,764.645,2393.941,770.356z"/>
			<path style="fill:#FFFFFF;" d="M2466.356,766.34l2.129,15.602c0.681,4.996,4.896,8.753,9.936,8.86l0.737,0.016
				c5.659,0.12,10.343-4.37,10.463-10.029l0.339-15.97c0.131-6.189-5.213-11.081-11.367-10.404l-3.205,0.353
				C2469.659,755.398,2465.577,760.629,2466.356,766.34z"/>
			<path style="fill:#FFFFFF;" d="M2555.453,767.567l2.13,15.602c0.681,4.996,4.896,8.753,9.937,8.86l0.737,0.016
				c5.659,0.12,10.343-4.37,10.463-10.029l0.339-15.97c0.131-6.189-5.213-11.081-11.367-10.404l-3.205,0.353
				C2558.756,756.625,2554.674,761.855,2555.453,767.567z"/>
			<path style="fill:#FFFFFF;" d="M2642.26,763.68l2.129,15.601c0.682,4.996,4.896,8.753,9.937,8.86l0.737,0.015
				c5.659,0.121,10.344-4.37,10.463-10.028l0.339-15.97c0.132-6.189-5.213-11.081-11.366-10.404l-3.205,0.353
				C2645.563,752.738,2641.48,757.968,2642.26,763.68z"/>
			<path style="fill:#FFFFFF;" d="M2731.419,752.342l2.129,15.602c0.681,4.995,4.896,8.753,9.937,8.86l0.737,0.016
				c5.659,0.12,10.343-4.37,10.463-10.029l0.339-15.969c0.131-6.19-5.213-11.081-11.367-10.405l-3.205,0.353
				C2734.722,741.4,2730.639,746.631,2731.419,752.342z"/>
			<path style="fill:#FFFFFF;" d="M2825.869,754.345l2.129,15.602c0.682,4.995,4.896,8.753,9.937,8.86l0.737,0.015
				c5.659,0.12,10.343-4.37,10.463-10.029l0.339-15.969c0.131-6.19-5.213-11.081-11.367-10.404l-3.205,0.353
				C2829.172,743.404,2825.09,748.634,2825.869,754.345z"/>
			<path style="fill:#FFFFFF;" d="M2905.592,752.676l2.129,15.602c0.681,4.995,4.896,8.753,9.936,8.86l0.737,0.016
				c5.659,0.12,10.343-4.37,10.463-10.029l0.339-15.97c0.131-6.19-5.213-11.081-11.367-10.404l-3.205,0.353
				C2908.894,741.734,2904.812,746.964,2905.592,752.676z"/>
			<g>
				
					<linearGradient id="SVGID_00000022525784398121418930000001192467539945608836_" gradientUnits="userSpaceOnUse" x1="2973.8867" y1="362.562" x2="2781.4573" y2="968.5451">
					<stop  offset="0" style="stop-color:#FF928E"/>
					<stop  offset="1" style="stop-color:#FE7062"/>
				</linearGradient>
				<path style="fill:url(#SVGID_00000022525784398121418930000001192467539945608836_);" d="M2875.319,748.38
					c-0.196-3.372-3.719-4.816-6.313-2.773c-7.328,5.771-10.306,14.736-13.917,23.097c-4.208,9.743-8.241,19.562-11.823,29.554
					c-3.777,10.533-6.997,21.255-9.449,32.143c-4.863-13.005-10.514-25.673-17.681-37.693c-1.903-3.191-7.277-1.325-6.211,2.465
					c6.198,22.033,13.825,43.619,19.663,65.765c2.06,7.814,12.747,5.968,13.543-1.541c2.173-20.508,7.126-40.127,14.156-59.497
					c3.343-9.209,7.073-18.274,10.94-27.273C2871.649,764.658,2875.835,757.229,2875.319,748.38z"/>
				
					<linearGradient id="SVGID_00000147918467794093287740000002702662097535104189_" gradientUnits="userSpaceOnUse" x1="2989.6257" y1="367.5596" x2="2797.1963" y2="973.5431">
					<stop  offset="0" style="stop-color:#FF928E"/>
					<stop  offset="1" style="stop-color:#FE7062"/>
				</linearGradient>
				<path style="fill:url(#SVGID_00000147918467794093287740000002702662097535104189_);" d="M2885.385,764.722
					c-6.374-1.193-8.693,6.966-2.848,9.537c38.677,17.017,43.734,64.968,15.793,94.003c-12.924,13.429-30.071,23.852-46.307,32.812
					c-16.468,9.087-34.851,16.03-53.961,14.11c-44.297-4.45-50.319-49.536-37.075-84.325c12.738-33.461,40.019-59.293,73.419-71.676
					c4.315-1.599,2.643-8.623-1.78-7.037c-31.337,11.238-58.01,33.406-74.533,62.415c-15.199,26.684-24.317,64.323-4.421,91.109
					c20.587,27.718,59.665,28.214,89.108,16.659c32.386-12.71,72.711-36.29,85.604-70.509
					C2941.889,815.973,2925.22,772.175,2885.385,764.722z"/>
			</g>
			<g>
				<path style="fill:#91B3FA;" d="M3044.345,1193.342c-0.921,0-1.671-0.743-1.677-1.666l-2.039-294.375
					c-0.006-0.927,0.74-1.683,1.667-1.69h0.012c0.921,0,1.671,0.743,1.678,1.666l2.039,294.375c0.006,0.927-0.74,1.683-1.667,1.69
					H3044.345z"/>
				<path style="fill:#91B3FA;" d="M3041.838,831.375c-0.921,0-1.671-0.744-1.677-1.667l-0.712-102.812
					c-0.006-0.927,0.74-1.683,1.667-1.689h0.012c0.921,0,1.671,0.744,1.678,1.667l0.712,102.812c0.006,0.927-0.74,1.683-1.667,1.689
					L3041.838,831.375z"/>
			</g>
			<circle style="fill:#91B3FA;" cx="2411.782" cy="727.119" r="17.936"/>
			<circle style="fill:#91B3FA;" cx="2558.741" cy="725.739" r="17.936"/>
			<circle style="fill:#91B3FA;" cx="2707.08" cy="720.91" r="17.936"/>
			<circle style="fill:#91B3FA;" cx="2854.039" cy="714.01" r="17.936"/>
			<g>
				<path style="fill:#7D97F4;" d="M2867.681,589.725c-30.183,6.585-27.335,85.994-24.906,118.232
					c0.572,7.586,6.89,13.438,14.498,13.438c2.112,0,4.125-0.909,5.535-2.481c1.411-1.572,2.085-3.674,1.86-5.775
					c-2.607-24.367-8.155-94.537,14.065-98.289c0,0,15.939-2.82,18.621,28.054h17.244
					C2914.597,642.904,2905.628,581.445,2867.681,589.725z"/>
				<path style="fill:#7D97F4;" d="M2720.721,593.808c-30.183,6.585-27.335,86.022-24.906,118.26
					c0.572,7.586,6.89,13.453,14.498,13.453c2.112,0,4.125-0.902,5.535-2.474c1.411-1.572,2.085-3.671,1.86-5.771
					c-2.607-24.367-8.155-94.592,14.065-98.344c0,0,15.939-2.204,18.62,27.999h17.244
					C2767.638,646.931,2758.669,585.529,2720.721,593.808z"/>
				<path style="fill:#7D97F4;" d="M2573.762,597.911c-30.183,6.585-27.335,86.04-24.906,118.279
					c0.572,7.586,6.89,13.462,14.498,13.462c2.112,0,4.125-0.898,5.535-2.47c1.411-1.572,2.084-3.669,1.86-5.769
					c-2.607-24.367-8.155-94.627,14.065-98.379c0,0,15.932-1.794,18.613,28.563l17.251-0.6
					C2620.679,650.997,2611.709,589.631,2573.762,597.911z"/>
				<path style="fill:#7D97F4;" d="M2426.803,602.656c-30.183,6.585-27.335,86.083-24.906,118.321
					c0.572,7.586,6.89,13.483,14.498,13.483c2.112,0,4.125-0.887,5.535-2.459c1.411-1.571,2.085-3.663,1.86-5.763
					c-2.607-24.367-8.155-94.71,14.065-98.462c0,0,15.939-2.322,18.621,27.881h17.244
					C2473.719,655.657,2464.75,594.376,2426.803,602.656z"/>
			</g>
		</g>
		<g>
			<g>
				<path style="fill:#91B3FA;" d="M1494.118,1585.486h-490.719c-19.812,0-35.872-14.693-35.872-32.817v-292.322
					c0-17.415,14.869-31.797,33.876-32.767l509.654-25.988c21.338-1.088,38.977,15.027,37.816,34.55l-18.935,318.309
					C1528.902,1571.859,1513.172,1585.486,1494.118,1585.486z"/>
				<g>
					<path style="fill:#BDD0FB;" d="M1260.216,1409.097l268.243-204.375c-5.233-2.283-11.157-3.448-17.402-3.129l-509.654,25.988
						c-8.764,0.447-16.643,3.751-22.596,8.884l200.756,170.805C1201.357,1425.813,1237.21,1426.625,1260.216,1409.097z"/>
				</g>
			</g>
			<path style="opacity:0.72;fill:#FFFFFF;" d="M1222.926,1398.968c-13.337,0-26.612-4.365-37.28-12.981l-75.641-61.09
				c-2.22-1.793-2.431-4.892-0.471-6.922c1.96-2.034,5.351-2.225,7.567-0.431l75.641,61.09
				c16.069,12.977,39.447,14.048,56.856,2.602l39.195-25.772c2.412-1.581,5.754-1.076,7.483,1.121c1.728,2.2,1.18,5.264-1.225,6.846
				l-39.196,25.773C1245.916,1395.736,1234.398,1398.968,1222.926,1398.968z"/>
			<path style="opacity:0.72;fill:#FFFFFF;" d="M1085.412,1303.396c-1.262,0-2.527-0.404-3.546-1.228l-10.183-8.223
				c-2.22-1.793-2.431-4.892-0.471-6.922c1.958-2.034,5.347-2.222,7.567-0.431l10.183,8.223c2.219,1.793,2.431,4.892,0.471,6.922
				C1088.373,1302.836,1086.895,1303.396,1085.412,1303.396z"/>
		</g>
		<g>
			<path style="fill:#91B3FA;" d="M2780.252,1632.598v224.757c0,26.704,20.983,48.696,47.657,49.949l281.064,13.206
				c28.507,1.339,52.351-21.411,52.351-49.949v-237.962c0-27.617-22.388-50.004-50.004-50.004h-281.064
				C2802.64,1582.593,2780.252,1604.981,2780.252,1632.598z"/>
			<path style="opacity:0.72;fill:#FFFFFF;" d="M2882.072,1865.379c-3.633,0-6.701-0.044-9.133-0.093
				c-4.15-0.083-7.555-3.139-8.085-7.265c-0.532-4.155,2.009-7.992,6.042-9.13c21.585-6.049,45.12-16.332,62.45-24.656
				c-82.649-6.738-99.149-49.185-102.337-68.602c-8.046-48.965,34.453-104.371,94.733-123.51
				c61.516-19.515,123.827-12.484,158.77,17.923c18.568,16.161,38.708,47.105,29.211,102.794
				C3095.962,1857.03,2933.479,1865.379,2882.072,1865.379z M2874.968,1863.324h0.005H2874.968z M2873.25,1850.288h0.02
				C2873.269,1850.288,2873.257,1850.288,2873.25,1850.288z M2992.66,1809.544l-26.184,14.598
				c-1.379,0.767-24.427,13.549-52.457,25.271c63.808-3.847,171.757-21.873,184.92-99.093c6.679-39.196-1.484-69.13-24.27-88.957
				c-35.349-30.769-97.982-29.665-144.389-14.945c-52.556,16.688-91.24,65.585-84.472,106.783
				c6.144,37.399,48.733,58.32,116.879,56.89L2992.66,1809.544z"/>
		</g>
		<g>
			<path style="fill:#91B3FA;" d="M1767.349,2964.068h-291.204c-22.271,0-40.325-13.938-40.325-31.131V2707.52
				c0-16.219,16.131-29.721,37.072-31.03l310.26-19.386c24.442-1.527,44.976,14,43.505,32.897l-19.055,244.803
				C1806.322,2951.242,1788.68,2964.068,1767.349,2964.068z"/>
			<path style="opacity:0.72;fill:#FFFFFF;" d="M1517.609,2919.221c-8.094,0-15.659-2.833-20.953-7.89
				c-4.318-4.128-6.697-9.434-6.697-14.948v-144.521c0-3.537,2.867-6.404,6.404-6.404c3.537,0,6.404,2.867,6.404,6.404v144.521
				c0,2.539,1.489,4.491,2.736,5.685c3.077,2.943,7.993,4.544,13.113,4.319l221.836-10.201c7.667-0.35,13.906-4.841,13.906-10.003
				v-141.891c0-2.605-1.557-4.594-2.864-5.807c-3.246-3.005-8.327-4.562-13.623-4.156l-184.538,14.11
				c-7.508,0.575-11.601,4.456-12.824,7.605c-1.01,2.602-0.362,5.238,1.872,7.621l70.384,74.984
				c2.76,2.942,7.388,4.725,12.377,4.769c5.031-0.088,9.755-1.685,12.615-4.628l77.529-79.747c2.467-2.533,6.522-2.586,9.056-0.125
				c2.536,2.464,2.594,6.52,0.128,9.056l-77.53,79.747c-5.328,5.479-13.281,8.49-21.911,8.505
				c-8.545-0.075-16.42-3.286-21.605-8.809l-70.384-74.987c-5.596-5.967-7.266-13.825-4.47-21.023
				c3.437-8.85,12.551-14.879,23.786-15.739l184.539-14.109c8.768-0.669,17.488,2.145,23.303,7.533
				c4.494,4.162,6.968,9.563,6.968,15.201v141.891c0,12.111-11.476,22.127-26.126,22.799l-221.838,10.201
				C1518.671,2919.209,1518.137,2919.221,1517.609,2919.221z"/>
		</g>
		<g>
			
				<linearGradient id="SVGID_00000150099573052143513160000013563615034214491529_" gradientUnits="userSpaceOnUse" x1="618.6204" y1="2221.1133" x2="861.6758" y2="1871.7212">
				<stop  offset="0" style="stop-color:#E1473D"/>
				<stop  offset="1" style="stop-color:#E9605A"/>
			</linearGradient>
			<path style="fill:url(#SVGID_00000150099573052143513160000013563615034214491529_);" d="M857.391,1773.314
				c0,0-33.026,16.064-39.099,34.518c-4.872,14.807-41.39,16.715-44.998,45.836c-1.862,15.035-12.988,27.076-27.964,29.371
				c-37.297,5.717-94.775,25.084-103.972,89.84c-7.02,49.427,18.178,68.17,44.622,74.657c19.422,4.765,32.33,23.656,28.401,43.265
				c-3.768,18.808,1.851,40.55,34.434,57.743c73.016,38.528,145.934-91.276,145.934-91.276l14.944-226.645L857.391,1773.314z"/>
			
				<linearGradient id="SVGID_00000096046909358401301180000003252099051912066483_" gradientUnits="userSpaceOnUse" x1="-2423.5166" y1="1464.3407" x2="-2242.5369" y2="1876.1104" gradientTransform="matrix(-0.9776 -0.2106 -0.2106 0.9776 -915.0133 -113.5247)">
				<stop  offset="0" style="stop-color:#FEBBBA"/>
				<stop  offset="1" style="stop-color:#FF928E"/>
			</linearGradient>
			<path style="fill:url(#SVGID_00000096046909358401301180000003252099051912066483_);" d="M1254.691,1719.583
				c0,0-145.786,230.593-319.143,275.132c0,0,33.779,96.21,59.852,107.221c0,0,213.278-177.956,268.087-349.587L1254.691,1719.583z"
				/>
			
				<linearGradient id="SVGID_00000088104969138924044380000011518784714293159809_" gradientUnits="userSpaceOnUse" x1="-1722.797" y1="3214.3789" x2="-1639.7274" y2="3214.3789" gradientTransform="matrix(-1 0 0 1 -1165.4333 0)">
				<stop  offset="0" style="stop-color:#09005D"/>
				<stop  offset="1" style="stop-color:#1A0F91"/>
			</linearGradient>
			<path style="fill:url(#SVGID_00000088104969138924044380000011518784714293159809_);" d="M557.265,3194.456l-4.725,38.843
				c-0.896,7.369-6.698,13.196-14.073,14.038c-12.452,1.422-32.434,2.88-51.985,0.813c-8.582-0.907-14.152-9.597-11.538-17.821
				c4.766-14.995,13.485-37.504,26.056-50.75h43.089C552.055,3179.58,558.227,3186.548,557.265,3194.456z"/>
			
				<linearGradient id="SVGID_00000100353455173965430260000005187069489366888632_" gradientUnits="userSpaceOnUse" x1="-2073.8086" y1="3541.9595" x2="-1954.2655" y2="2144.7991" gradientTransform="matrix(-1 0 0 1 -1165.4333 0)">
				<stop  offset="0" style="stop-color:#FEBBBA"/>
				<stop  offset="1" style="stop-color:#FF928E"/>
			</linearGradient>
			<path style="fill:url(#SVGID_00000100353455173965430260000005187069489366888632_);" d="M894.75,2739.439l7.273,42.781
				c0,0-24.355,246.694-28.687,345.371c-0.679,15.471,3.323,30.76,11.443,43.946l42.349,68.771l-107.629-63.51l-2.143-13.134
				l17.619-24.225l-23.078-276.358c-1.356-16.235,1.994-32.516,9.649-46.897l22.262-41.823L894.75,2739.439z"/>
			
				<linearGradient id="SVGID_00000078757959730914712720000017282836670158824383_" gradientUnits="userSpaceOnUse" x1="-2108.7307" y1="3199.2124" x2="-1974.3179" y2="3199.2124" gradientTransform="matrix(-1 0 0 1 -1165.4333 0)">
				<stop  offset="0" style="stop-color:#09005D"/>
				<stop  offset="1" style="stop-color:#1A0F91"/>
			</linearGradient>
			<path style="fill:url(#SVGID_00000078757959730914712720000017282836670158824383_);" d="M934.215,3250.27h-34.346
				c-6.429,0-12.492-2.952-16.413-8.047c-10.707-13.913-32.892-41.057-43.5-41.766c-14.28-0.954-12.453,49.812-12.453,49.812h-8.004
				l-10.139-63.083c-2.551-15.872,5.342-31.596,19.595-39.032c0,0,3.264,24.14,20.964,34.819
				c17.7,10.678,72.027,48.918,72.027,48.918s6.654-0.949,13.959,0.372C946.742,3234.222,945.228,3250.27,934.215,3250.27z"/>
			
				<linearGradient id="SVGID_00000025442165036767566770000009302647835932278412_" gradientUnits="userSpaceOnUse" x1="-1833.3403" y1="3562.7485" x2="-1713.7657" y2="2165.2209" gradientTransform="matrix(-1 0 0 1 -1165.4333 0)">
				<stop  offset="0" style="stop-color:#FEBBBA"/>
				<stop  offset="1" style="stop-color:#FF928E"/>
			</linearGradient>
			<path style="fill:url(#SVGID_00000025442165036767566770000009302647835932278412_);" d="M747.333,2759.758
				c0,0-142.678,270.646-165.358,332.439c-22.68,61.793-30.625,113.342-30.93,118.223c-0.475,7.628-9.962,14.944-36.114,14.944
				c-13.496,0-20.106-5.41-23.342-10.646c-2.761-4.468-2.904-10.058-0.577-14.766c8.253-16.703,34.445-70.081,44.145-94.291
				c11.582-28.905,36.494-159.9,50.156-205.445c13.663-45.545,29.106-94.95,88.604-140.458
				C673.917,2759.758,714.76,2719.755,747.333,2759.758z"/>
			
				<linearGradient id="SVGID_00000018945894351394847080000010000894679028185239_" gradientUnits="userSpaceOnUse" x1="781.0333" y1="2164.1472" x2="1038.1998" y2="2164.1472">
				<stop  offset="0" style="stop-color:#DAE3FE"/>
				<stop  offset="1" style="stop-color:#E9EFFD"/>
			</linearGradient>
			<path style="fill:url(#SVGID_00000018945894351394847080000010000894679028185239_);" d="M837.466,2316.291
				c36.804-155.955-56.432-244.161-56.432-244.161c58.83-56.47,166.019-82.167,166.019-82.167s102.281,74.777,90.148,133.306
				c-7.112,34.304-71.894,205.476-71.894,205.476S905.402,2357.094,837.466,2316.291z"/>
			
				<linearGradient id="SVGID_00000098918427504894596930000009724767772679019958_" gradientUnits="userSpaceOnUse" x1="669.3871" y1="2551.8499" x2="972.731" y2="2551.8499">
				<stop  offset="0" style="stop-color:#4F52FF"/>
				<stop  offset="1" style="stop-color:#4042E2"/>
			</linearGradient>
			<path style="fill:url(#SVGID_00000098918427504894596930000009724767772679019958_);" d="M755.865,2393.5
				c14.978-45.123,81.601-77.209,81.601-77.209c67.937,40.803,127.841,12.453,127.841,12.453s13.434,51.349,4.162,99.07
				c-9.272,47.72-67.445,354.406-67.445,354.406c-91.662,18.573-232.635-18.686-232.635-18.686
				C727.772,2659.876,740.887,2438.623,755.865,2393.5z"/>
			
				<linearGradient id="SVGID_00000132076370138422541090000000370093506958240417_" gradientUnits="userSpaceOnUse" x1="-2086.9185" y1="2164.7778" x2="-2064.4626" y2="2000.4969" gradientTransform="matrix(-1 0 0 1 -1165.4333 0)">
				<stop  offset="0" style="stop-color:#FEBBBA"/>
				<stop  offset="1" style="stop-color:#FF928E"/>
			</linearGradient>
			<path style="fill:url(#SVGID_00000132076370138422541090000000370093506958240417_);" d="M880.186,1886.903l-29.923,134.407
				c-2.865,11.839,7.928,9.901,19.897,7.645c19.602-3.695,44.865-11.307,53.311-26.559c0.86-1.552,1.289-3.307,1.531-5.065
				l12.855-93.201c1.02-7.394-2.977-14.571-9.801-17.597l-24.807-11C893.699,1871.298,882.644,1876.748,880.186,1886.903z"/>
			<g>
				
					<linearGradient id="SVGID_00000045580696086131814510000015167880840654921866_" gradientUnits="userSpaceOnUse" x1="-2263.2102" y1="1658.1045" x2="-2067.2742" y2="1309.4043" gradientTransform="matrix(-0.9809 -0.1943 -0.1943 0.9809 -936.3432 -99.2406)">
					<stop  offset="0" style="stop-color:#FEBBBA"/>
					<stop  offset="1" style="stop-color:#FF928E"/>
				</linearGradient>
				<path style="fill:url(#SVGID_00000045580696086131814510000015167880840654921866_);" d="M937.5,1764.377
					c0,0,31.856,21.564,45.545,76.479s-8.557,74.614-31.359,73.407c-22.803-1.207-55.865-8.259-84.511-47.656
					C838.527,1827.211,895.755,1738.027,937.5,1764.377z"/>
				
					<linearGradient id="SVGID_00000078021840307618162560000018035849950834512814_" gradientUnits="userSpaceOnUse" x1="602.3785" y1="2209.8152" x2="845.4348" y2="1860.4218">
					<stop  offset="0" style="stop-color:#E1473D"/>
					<stop  offset="1" style="stop-color:#E9605A"/>
				</linearGradient>
				<path style="fill:url(#SVGID_00000078021840307618162560000018035849950834512814_);" d="M896.062,1844.458
					c0,0-11.672-78.689,53.66-66.653l13.21,13.753c0,0,31.978-36.013-3.41-63.236c-35.388-27.223-84.496-20.251-111.665,29.308
					c-27.169,49.56-37.03,84.384-14.257,115.18c22.773,30.796,39.902,4.384,39.902,4.384s-10.444-26.654-1.778-38.091
					c8.666-11.437,19.846,6.651,19.846,6.651L896.062,1844.458z"/>
				
					<linearGradient id="SVGID_00000026846839091742193100000011854226071058835133_" gradientUnits="userSpaceOnUse" x1="-2221.5034" y1="1681.5425" x2="-2025.5679" y2="1332.8428" gradientTransform="matrix(-0.9809 -0.1943 -0.1943 0.9809 -936.3432 -99.2406)">
					<stop  offset="0" style="stop-color:#FEBBBA"/>
					<stop  offset="1" style="stop-color:#FF928E"/>
				</linearGradient>
				<path style="fill:url(#SVGID_00000026846839091742193100000011854226071058835133_);" d="M887.133,1851.197
					c0,0-5.763-40.485-26.439-28.911c-20.676,11.573,7.452,37.819,18.73,46.748L887.133,1851.197z"/>
			</g>
			<g>
				
					<linearGradient id="SVGID_00000129176599187397391960000006621233396432471462_" gradientUnits="userSpaceOnUse" x1="-2459.2815" y1="1480.0603" x2="-2278.3018" y2="1891.8301" gradientTransform="matrix(-0.9776 -0.2106 -0.2106 0.9776 -915.0133 -113.5247)">
					<stop  offset="0" style="stop-color:#FEBBBA"/>
					<stop  offset="1" style="stop-color:#FF928E"/>
				</linearGradient>
				<path style="fill:url(#SVGID_00000129176599187397391960000006621233396432471462_);" d="M1253.69,1767.055
					c0.442,4.757-17.247,8.044-22.876-12.234c1.547-8.804,4.296-47.357,11.046-53.346c35.952-31.9,100.061-67.786,100.061-67.786
					c7.17,10.947-2.233,18.157-2.233,18.157l-32.002,21.597c3.338,11.057,8.21,20.832,8.761,33.455
					c0.417,9.559-3.114,18.918-9.459,26.169c-6.369,7.277-14.943,16.673-22.672,23.807
					C1269.687,1770.376,1253.69,1767.055,1253.69,1767.055z"/>
				
					<linearGradient id="SVGID_00000098198708277876232020000015809998207058231985_" gradientUnits="userSpaceOnUse" x1="1250.2441" y1="1718.4098" x2="1298.9769" y2="1718.4098">
					<stop  offset="0" style="stop-color:#FEBBBA"/>
					<stop  offset="1" style="stop-color:#FF928E"/>
				</linearGradient>
				<path style="fill:url(#SVGID_00000098198708277876232020000015809998207058231985_);" d="M1271.073,1751.338l-4.891-2.012
					c0.65-1.583,16.008-38.901,23.435-46.664c2.823-2.945,4.185-5.467,4.06-7.501c-0.063-1.1-0.608-2.187-1.642-3.294
					l-25.894,13.849l-11.438,17.908l-4.458-2.851l12.179-19.075l30.331-16.217l1.369,1.115c3.067,2.508,4.653,5.202,4.835,8.241
					c0.224,3.619-1.579,7.375-5.513,11.487C1287.849,1712.168,1275.398,1740.798,1271.073,1751.338z"/>
			</g>
			<g>
				
					<linearGradient id="SVGID_00000007424295367156034880000009977355434976886187_" gradientUnits="userSpaceOnUse" x1="-3320.4604" y1="2221.3406" x2="-3535.8247" y2="2280.3665" gradientTransform="matrix(-0.9988 -0.0494 -0.0494 0.9988 -2381.2668 -55.0328)">
					<stop  offset="0" style="stop-color:#09005D"/>
					<stop  offset="1" style="stop-color:#1A0F91"/>
				</linearGradient>
				<path style="fill:url(#SVGID_00000007424295367156034880000009977355434976886187_);" d="M870.814,2398.567
					c0.204,0.01,0.409,0.015,0.615,0.014l267.322-0.289c6.608-0.005,11.959-5.312,11.953-11.85
					c-0.007-6.541-5.389-11.944-11.979-11.827l-267.322,0.289c-6.608,0.005-11.96,5.312-11.953,11.85
					C859.457,2393.089,864.491,2398.258,870.814,2398.567z"/>
				
					<linearGradient id="SVGID_00000101809675836032615610000018240182837889035919_" gradientUnits="userSpaceOnUse" x1="-3540.2649" y1="2190.2454" x2="-3692.1772" y2="2350.8074" gradientTransform="matrix(-1 0 0 1 -2422.7358 0)">
					<stop  offset="0" style="stop-color:#09005D"/>
					<stop  offset="1" style="stop-color:#1A0F91"/>
				</linearGradient>
				<path style="fill:url(#SVGID_00000101809675836032615610000018240182837889035919_);" d="M1379.061,2158.419h-222.628
					c-16.423,0-31.372,9.378-38.377,24.075l-102.92,215.932h276.667c10.584,0,20.093-6.398,23.983-16.137l79.81-199.813
					C1400.207,2170.931,1391.608,2158.419,1379.061,2158.419z"/>
				
					<ellipse transform="matrix(0.313 -0.9497 0.9497 0.313 -1309.0508 2739.115)" style="fill:#91B3FA;" cx="1238.914" cy="2274.451" rx="28.238" ry="17.522"/>
			</g>
			
				<linearGradient id="SVGID_00000145761224373581828280000000098933412586273168_" gradientUnits="userSpaceOnUse" x1="508.937" y1="2377.2588" x2="978.5788" y2="2180.79">
				<stop  offset="0" style="stop-color:#FEBBBA"/>
				<stop  offset="1" style="stop-color:#FF928E"/>
			</linearGradient>
			<path style="fill:url(#SVGID_00000145761224373581828280000000098933412586273168_);" d="M780.649,2072.451
				c-36.475,36.807-82.752,199.95-59.792,227.2c20.216,31.723,89.051,74.905,154.598,74.962h96.709
				c-40.637-43.177-68.617-54.129-101.943-23.936c-26.443-11.298-60.729-55.066-83.614-74.607
				c-8.985-7.672-11.106-20.76-5.097-30.934c18.18-30.778,40.98-62.421,48.231-93.07
				C831.297,2116.151,804.719,2075.044,780.649,2072.451z"/>
		</g>
		<g>
			
				<linearGradient id="SVGID_00000021804194424104264760000015911230498231206788_" gradientUnits="userSpaceOnUse" x1="2882.9375" y1="2885.9507" x2="2813.1169" y2="2992.1731" gradientTransform="matrix(1 0 0 1 66.0039 0)">
				<stop  offset="0" style="stop-color:#FDF53F"/>
				<stop  offset="0.6645" style="stop-color:#E57A58"/>
				<stop  offset="1" style="stop-color:#D93C65"/>
			</linearGradient>
			<path style="fill:url(#SVGID_00000021804194424104264760000015911230498231206788_);" d="M2863.962,2934.115
				c15.25,3.033,102.151,54.745,102.151-4.376c0-5.57,0-66.041,0-66.041S2859.58,2933.244,2863.962,2934.115z"/>
			
				<linearGradient id="SVGID_00000127735695235709368030000014175142574948212151_" gradientUnits="userSpaceOnUse" x1="2484.7983" y1="3189.2905" x2="2402.9331" y2="3292.2207" gradientTransform="matrix(1 0 0 1 66.0039 0)">
				<stop  offset="0" style="stop-color:#09005D"/>
				<stop  offset="1" style="stop-color:#1A0F91"/>
			</linearGradient>
			<path style="fill:url(#SVGID_00000127735695235709368030000014175142574948212151_);" d="M2559.018,3217.87
				c0,0-20.193-16.759-47.042-14.316c-18.718,3.279-40.678,19.833-54.834,32.117c-2.469,2.141-3.299,5.551-2.084,8.542
				c1.215,2.99,4.218,4.929,7.527,4.861c35.104-0.727,103.78-2.812,103.78-7.988
				C2566.365,3234.135,2559.018,3217.87,2559.018,3217.87z"/>
			
				<linearGradient id="SVGID_00000088132434040440996190000011421541551368446105_" gradientUnits="userSpaceOnUse" x1="2499.9775" y1="3170.0046" x2="2452.4343" y2="3229.781" gradientTransform="matrix(1 0 0 1 66.0039 0)">
				<stop  offset="0" style="stop-color:#FEBBBA"/>
				<stop  offset="1" style="stop-color:#FF928E"/>
			</linearGradient>
			<path style="fill:url(#SVGID_00000088132434040440996190000011421541551368446105_);" d="M2572.929,3188.332l-16.113,30.434
				c0,0-36.402,2.984-35.208-11.338c1.193-14.322,10.145-31.628,10.145-31.628L2572.929,3188.332z"/>
			
				<linearGradient id="SVGID_00000165951478188699957010000017796776358106550694_" gradientUnits="userSpaceOnUse" x1="4035.377" y1="3957.1221" x2="3250.5095" y2="3430.502">
				<stop  offset="0" style="stop-color:#4F52FF"/>
				<stop  offset="1" style="stop-color:#4042E2"/>
			</linearGradient>
			<path style="fill:url(#SVGID_00000165951478188699957010000017796776358106550694_);" d="M2984.353,3209.054
				c-25.244-137.824-21.175-221.841-21.175-221.841s-302.228-184.98-330.872-140.821c-28.644,44.16-110.727,345.52-110.727,345.52
				l54.731,14.919c0,0,104.631-141.723,114.179-262.718c26.938,88.246,52.041,299.128,259.291,305.177
				c10.29,0.3,20.16-4.066,26.869-11.874C2983.359,3229.61,2986.208,3219.18,2984.353,3209.054z"/>
			
				<linearGradient id="SVGID_00000015351751092733540840000017340974104923499931_" gradientUnits="userSpaceOnUse" x1="2270.3931" y1="3161.4973" x2="2300.2703" y2="3266.3171" gradientTransform="matrix(1 0 0 1 66.0039 0)">
				<stop  offset="0" style="stop-color:#FEBBBA"/>
				<stop  offset="1" style="stop-color:#FF928E"/>
			</linearGradient>
			<polygon style="fill:url(#SVGID_00000015351751092733540840000017340974104923499931_);" points="2379.582,3205.638 
				2346.163,3237.266 2319.906,3211.009 2354.518,3171.026 			"/>
			
				<linearGradient id="SVGID_00000155846956390430360370000007341287344768641431_" gradientUnits="userSpaceOnUse" x1="2406.7717" y1="2661.9087" x2="2421.1692" y2="2532.3303" gradientTransform="matrix(-1 0 0 1 5498.4336 0)">
				<stop  offset="0" style="stop-color:#FEBBBA"/>
				<stop  offset="1" style="stop-color:#FF928E"/>
			</linearGradient>
			<path style="fill:url(#SVGID_00000155846956390430360370000007341287344768641431_);" d="M3114.979,2519.199l27.904,102.83
				c1.279,4.711-0.301,9.813-3.973,12.593c-13.434,10.167-48.547,30.384-96.714,10.736c-5.509-2.247-9.283-7.932-9.76-14.398
				l-6.615-89.581L3114.979,2519.199z"/>
			<g>
				
					<linearGradient id="SVGID_00000023981245492835289770000013059876483843974324_" gradientUnits="userSpaceOnUse" x1="2390.5293" y1="2523.5906" x2="2333.2075" y2="2334.5298" gradientTransform="matrix(-0.9964 -0.085 -0.085 0.9964 5609.4741 233.0212)">
					<stop  offset="0" style="stop-color:#FEBBBA"/>
					<stop  offset="1" style="stop-color:#FF928E"/>
				</linearGradient>
				<path style="fill:url(#SVGID_00000023981245492835289770000013059876483843974324_);" d="M2951.656,2436.255
					c0,0,5.47,97.29,39.874,130c34.403,32.71,108.243,16.589,138.724-53.803l-37.847-128.032L2951.656,2436.255z"/>
				
					<linearGradient id="SVGID_00000119078083625056657210000009304570502625144212_" gradientUnits="userSpaceOnUse" x1="2347.7273" y1="2183.6206" x2="2401.1199" y2="2488.156" gradientTransform="matrix(-0.9964 -0.085 -0.085 0.9964 5609.4741 233.0212)">
					<stop  offset="0" style="stop-color:#09005D"/>
					<stop  offset="1" style="stop-color:#1A0F91"/>
				</linearGradient>
				<path style="fill:url(#SVGID_00000119078083625056657210000009304570502625144212_);" d="M3081.473,2471.626
					c-2.885,0.666-5.673-1.385-5.862-4.341c-0.576-8.987-2.405-26.832-8.121-39.367c0,0,4.6-12.311-32.421,3.721
					c-37.021,16.032-92.571,39.483-122.449,20.148c-29.13-18.851-53.066-103.257,26.291-81.228c3.019,0.838,6.049-1.366,6.085-4.499
					c0.156-13.523,4.126-44.328,36.282-51.581c30.092-6.787,45.003,7.807,50.932,16.354c1.744,2.514,5.357,2.776,7.418,0.513
					c9.755-10.71,35.671-33.066,69.441-14.609c27.816,15.203,30.792,33.388,29.369,44.441c-0.461,3.581,2.979,6.328,6.375,5.102
					c9.199-3.322,23.618-4.225,35.799,14.026c16.84,25.233-11.852,43.421-20.393,48.102c-1.399,0.767-2.347,2.156-2.493,3.745
					c-1.124,12.28-5.427,67.002-34.865,94.94c-2.549,2.419-8.963-0.009-10.043-3.353l-16.477-51.039
					c-0.765-2.37-3.217-3.761-5.644-3.201L3081.473,2471.626z"/>
				
					<linearGradient id="SVGID_00000182527404633371658420000001501464041265266614_" gradientUnits="userSpaceOnUse" x1="2343.1394" y1="2546.2075" x2="2285.8176" y2="2357.1467" gradientTransform="matrix(-0.9964 -0.085 -0.085 0.9964 5609.4741 233.0212)">
					<stop  offset="0" style="stop-color:#FEBBBA"/>
					<stop  offset="1" style="stop-color:#FF928E"/>
				</linearGradient>
				<path style="fill:url(#SVGID_00000182527404633371658420000001501464041265266614_);" d="M3077.398,2478.61
					c0,0,17.017-50.36,34.776-32.023c17.76,18.337-9.561,53.031-32.135,58.162L3077.398,2478.61z"/>
			</g>
			
				<linearGradient id="SVGID_00000031171260704848230220000012313276647280492950_" gradientUnits="userSpaceOnUse" x1="2214.9761" y1="3194.8767" x2="2242.8413" y2="3292.6377" gradientTransform="matrix(1 0 0 1 66.0039 0)">
				<stop  offset="0" style="stop-color:#09005D"/>
				<stop  offset="1" style="stop-color:#1A0F91"/>
			</linearGradient>
			<path style="fill:url(#SVGID_00000031171260704848230220000012313276647280492950_);" d="M2362.459,3221.843
				c-8.171,0.093-42.553-15.011-42.553-15.011l-32.025,8.553c-27.913-4.294-51.886,5.21-68.042,14.871
				c-3.529,2.109-5.224,6.313-4.16,10.284c1.064,3.972,4.631,6.758,8.742,6.827c31.609,0.524,83.516,1.051,109.807-0.522
				C2373.614,3244.488,2379.582,3245.62,2362.459,3221.843z"/>
			
				<linearGradient id="SVGID_00000036930045961112335720000008157069555469044634_" gradientUnits="userSpaceOnUse" x1="-3384.0422" y1="2758.5032" x2="-3186.1731" y2="2758.5032" gradientTransform="matrix(-1 0 0 1 -745.1407 0)">
				<stop  offset="0" style="stop-color:#09005D"/>
				<stop  offset="1" style="stop-color:#1A0F91"/>
			</linearGradient>
			<path style="fill:url(#SVGID_00000036930045961112335720000008157069555469044634_);" d="M2638.902,2881.957l-69.228-230.867
				c-2.824-9.419-11.191-16.1-21.001-16.772l-93.466-6.395c-9.5-0.65-16.567,8.631-13.413,17.616l77.39,220.475
				c2.493,7.103,8.87,12.123,16.359,12.879l92.04,10.221L2638.902,2881.957z"/>
			
				<linearGradient id="SVGID_00000119076568848126619710000009709773942707753618_" gradientUnits="userSpaceOnUse" x1="-3360.0266" y1="2844.9971" x2="-3518.2439" y2="2888.3604" gradientTransform="matrix(-1 0 0 1 -745.1407 0)">
				<stop  offset="0" style="stop-color:#09005D"/>
				<stop  offset="1" style="stop-color:#1A0F91"/>
			</linearGradient>
			<path style="fill:url(#SVGID_00000119076568848126619710000009709773942707753618_);" d="M2627.583,2889.115
				c0.15,0,0.3-0.003,0.451-0.012l196.117-9.913c4.848-0.244,8.58-4.373,8.335-9.221c-0.244-4.85-4.391-8.661-9.222-8.335
				l-196.117,9.913c-4.848,0.244-8.58,4.373-8.335,9.221C2619.05,2885.465,2622.933,2889.115,2627.583,2889.115z"/>
			
				<linearGradient id="SVGID_00000068667361212610217300000004610443753657297546_" gradientUnits="userSpaceOnUse" x1="-3674.6091" y1="1953.5547" x2="-3311.5876" y2="1456.9215" gradientTransform="matrix(-0.9515 -0.3075 -0.3075 0.9515 -71.953 -53.904)">
				<stop  offset="0" style="stop-color:#FEBBBA"/>
				<stop  offset="1" style="stop-color:#FF928E"/>
			</linearGradient>
			<path style="fill:url(#SVGID_00000068667361212610217300000004610443753657297546_);" d="M2919.235,2861.286
				c0,0-38.454,49.533-148.501-14.465c0,0-31.097-28.614-63.113-25.402c-32.016,3.213-55.246,46.77-55.246,46.77l61.785-1.267
				c0,0,85.781,104.085,265.116,104.085C2984.303,2931.105,2943.278,2897.259,2919.235,2861.286z"/>
			
				<linearGradient id="SVGID_00000050621532284389518650000010557786225724704159_" gradientUnits="userSpaceOnUse" x1="2973.5598" y1="2279.0171" x2="3145.7246" y2="3230.9868">
				<stop  offset="0" style="stop-color:#FF928E"/>
				<stop  offset="1" style="stop-color:#FE7062"/>
			</linearGradient>
			<path style="fill:url(#SVGID_00000050621532284389518650000010557786225724704159_);" d="M3071.541,2609.88
				c-23.415,5.148-49.392,29.903-67.762,50.754c-14.74,16.729-25.399,36.216-31.645,57.62
				c-14.073,48.225-44.872,142.589-65.254,151.611c46.15,65.545,53.928,86.996,53.928,86.996
				c-8.674,78.212-26.843,93.857-26.843,93.857s90.145,89.477,199.315,114.938c99.427-73.201,114.634-282.611,114.634-282.611
				C3255.7,2634.67,3140.987,2594.612,3071.541,2609.88z"/>
			
				<linearGradient id="SVGID_00000147933611394021614840000014084353774583812251_" gradientUnits="userSpaceOnUse" x1="2957.7268" y1="2866.9231" x2="3077.5693" y2="2866.9231">
				<stop  offset="0" style="stop-color:#E1473D"/>
				<stop  offset="1" style="stop-color:#E9605A"/>
			</linearGradient>
			<path style="fill:url(#SVGID_00000147933611394021614840000014084353774583812251_);" d="M2959.971,2959.48
				c-0.629,0-1.256-0.262-1.699-0.778c-0.81-0.938-0.706-2.355,0.233-3.165c0.901-0.781,90.52-79.025,114.636-179.451
				c0.292-1.204,1.507-1.944,2.708-1.658c1.207,0.289,1.947,1.501,1.658,2.708c-24.46,101.858-115.155,181.014-116.07,181.801
				C2961.015,2959.302,2960.493,2959.48,2959.971,2959.48z"/>
			
				<linearGradient id="SVGID_00000126319102409770980180000007071864525462390927_" gradientUnits="userSpaceOnUse" x1="2740.6833" y1="3113.6799" x2="2796.384" y2="2470.5952">
				<stop  offset="0" style="stop-color:#4F52FF"/>
				<stop  offset="1" style="stop-color:#4042E2"/>
			</linearGradient>
			<path style="fill:url(#SVGID_00000126319102409770980180000007071864525462390927_);" d="M3133.28,3165.656
				c0,0-44.757,133.076-265.661,58.482c-107.111-36.169-257.094-245.862-257.094-245.862s-36.999,101.448-230.347,237.508
				l-42.966-38.59c0,0,195.735-337.364,295.989-302.355C2733.456,2909.847,3163.913,3079.325,3133.28,3165.656z"/>
			<polygon style="fill:#BDD0FB;" points="2464.605,2644.644 2539.967,2854.716 2620,2852.633 2556.201,2651.09 			"/>
		</g>
	</g>
</g>
</svg>
